<?xml version="1.0" standalone="no"?>
<!DOCTYPE svg PUBLIC "-//W3C//DTD SVG 20010904//EN"
 "http://www.w3.org/TR/2001/REC-SVG-20010904/DTD/svg10.dtd">
<svg version="1.0" xmlns="http://www.w3.org/2000/svg"
 width="752.000000pt" height="752.000000pt" viewBox="0 0 752.000000 752.000000"
 preserveAspectRatio="xMidYMid meet">
<metadata>
Created by potrace 1.14, written by Peter Selinger 2001-2017
</metadata>
<g transform="translate(0.000000,752.000000) scale(0.100000,-0.100000)"
fill="#000000" stroke="none">
<path d="M3125 6944 c-122 -25 -271 -98 -336 -163 -9 -9 -112 -108 -228 -221
-117 -113 -266 -257 -331 -320 -65 -63 -214 -207 -330 -320 -116 -113 -262
-254 -325 -315 -62 -60 -208 -202 -325 -315 -117 -113 -272 -263 -345 -335
-74 -71 -225 -218 -336 -325 -363 -351 -409 -398 -459 -478 -28 -42 -50 -82
-50 -88 0 -6 -6 -24 -14 -40 -28 -59 -44 -163 -42 -273 2 -59 6 -113 10 -120
4 -6 9 -21 12 -33 24 -109 93 -226 192 -328 24 -25 322 -326 662 -670 341
-344 759 -767 930 -940 665 -673 803 -811 848 -847 26 -21 49 -41 52 -44 13
-15 161 -99 175 -99 8 0 15 -4 15 -10 0 -5 7 -10 15 -10 8 0 23 -4 33 -9 16
-9 40 -18 52 -19 3 0 19 -6 35 -12 17 -7 41 -14 55 -17 14 -2 45 -9 70 -15
102 -23 298 -17 450 16 81 17 288 107 323 139 6 7 39 32 72 56 33 25 91 74
129 110 159 153 1304 1291 2133 2122 920 921 954 958 1019 1099 31 68 73 193
80 240 3 19 9 49 13 65 9 35 6 278 -4 315 -3 14 -8 34 -10 45 -16 83 -72 239
-99 275 -6 8 -20 31 -30 50 -32 58 -117 157 -268 312 -176 180 -559 574 -665
684 -43 45 -161 168 -263 274 -429 445 -430 446 -615 516 -109 40 -295 39
-430 -4 -58 -18 -150 -64 -195 -97 -25 -18 -101 -90 -170 -160 -288 -292 -371
-375 -378 -375 -5 0 -131 123 -281 273 -272 272 -318 311 -421 359 -122 58
-296 79 -425 52z"/>
</g>
</svg>
